<svg width="16" height="16" viewBox="0 0 16 16" fill="none" xmlns="http://www.w3.org/2000/svg">
<path fill-rule="evenodd" clip-rule="evenodd" d="M8 16C12.418 16 16 12.4193 16 8C16 3.58332 12.418 0 8 0C3.58203 0 0 3.58332 0 8C0 12.4193 3.58203 16 8 16ZM7.99999 6.25806C7.25172 6.25806 6.64515 5.65149 6.64515 4.90322C6.64515 4.15495 7.25172 3.54838 7.99999 3.54838C8.74826 3.54838 9.35483 4.15495 9.35483 4.90322C9.35483 5.65149 8.74826 6.25806 7.99999 6.25806ZM6.58065 12.129H9.41936C9.63313 12.129 9.80645 11.9557 9.80645 11.7419V10.9677C9.80645 10.754 9.63313 10.5806 9.41936 10.5806H9.03226V7.35483C9.03226 7.14106 8.85894 6.96773 8.64516 6.96773H6.58065C6.36687 6.96773 6.19355 7.14106 6.19355 7.35483V8.12902C6.19355 8.3428 6.36687 8.51612 6.58065 8.51612H6.96774V10.5806H6.58065C6.36687 10.5806 6.19355 10.754 6.19355 10.9677V11.7419C6.19355 11.9557 6.36687 12.129 6.58065 12.129Z" fill="#49A12C"/>
</svg>
