<svg width="40" height="40" viewBox="0 0 40 40" fill="none" xmlns="http://www.w3.org/2000/svg">
<path d="M32 15.8906V14.625C32 13.1753 30.8247 12 29.375 12H10.625C9.17525 12 8 13.1753 8 14.625V15.8906C8 16.02 8.10495 16.125 8.23438 16.125H31.7656C31.895 16.125 32 16.02 32 15.8906Z" fill="#757BBA"/>
<path fill-rule="evenodd" clip-rule="evenodd" d="M8 25.875V17.8594C8 17.73 8.10495 17.625 8.23438 17.625H31.7656C31.895 17.625 32 17.73 32 17.8594V25.875C32 27.3247 30.8247 28.5 29.375 28.5H10.625C9.17525 28.5 8 27.3247 8 25.875ZM13.25 24.75C13.6642 24.75 14 24.4142 14 24V23.25C14 22.8358 13.6642 22.5 13.25 22.5H12.5C12.0858 22.5 11.75 22.8358 11.75 23.25V24C11.75 24.4142 12.0858 24.75 12.5 24.75H13.25Z" fill="#757BBA"/>
</svg>
